<?xml version="1.0" encoding="iso-8859-1"?>
<!-- Uploaded to: SVG Repo, www.svgrepo.com, Generator: SVG Repo Mixer Tools -->
<svg fill="#000000" height="800px" width="800px" version="1.1" id="Layer_1" xmlns="http://www.w3.org/2000/svg" xmlns:xlink="http://www.w3.org/1999/xlink" 
	 viewBox="0 0 512.322 512.322" xml:space="preserve">
<g>
	<g>
		<g>
			<path d="M490.824,106.658h-25.237c-91.947,0-166.763,74.816-166.763,166.763v25.237c0,11.776,9.536,21.333,21.333,21.333h25.237
				c91.947,0,166.763-74.816,166.763-166.763v-25.237C512.157,116.215,502.621,106.658,490.824,106.658z"/>
			<path d="M329.846,381.784h-0.021l-31.104-31.104c-33.771-33.749-78.656-52.352-126.379-52.352
				c-47.744,0-92.629,18.603-126.379,52.352l-31.125,31.104c-0.683,0.704-1.173,1.472-1.792,2.219h318.592
				C331.02,383.255,330.529,382.487,329.846,381.784z"/>
			<path d="M14.866,428.866L45.97,459.97c33.749,33.749,78.635,52.352,126.379,52.352c47.723,0,92.608-18.603,126.379-52.352
				l31.125-31.104c0.683-0.704,1.173-1.472,1.792-2.219H13.074C13.671,427.394,14.183,428.183,14.866,428.866z"/>
			<path d="M256.157,166.763C256.157,74.795,181.341,0,89.394,0H30.322l225.835,225.835V166.763z"/>
			<path d="M166.928,255.991H226L0.165,30.157v59.072C0.165,181.175,74.96,255.991,166.928,255.991z"/>
		</g>
	</g>
</g>
</svg>